<svg width="42" height="42" viewBox="0 0 42 42" fill="none" xmlns="http://www.w3.org/2000/svg">
<path d="M21 3.5C26.7925 3.5 31.5 8.155 31.5 13.9125C31.5 21.7175 21 33.25 21 33.25C21 33.25 10.5 21.7175 10.5 13.9125C10.5 8.155 15.2075 3.5 21 3.5ZM21 19.5C20.0717 19.5 22.1564 13.8436 21.5 14.5C20.8436 15.1564 27 13.0717 27 14C27 14.9283 27.3436 16.8436 28 17.5C28.6564 18.1564 20.0717 17.5 21 17.5C21.9283 17.5 22.8185 17.1312 23.4749 16.4749C24.1312 15.8185 22.5 17.9283 22.5 17C22.5 16.0717 12.0251 19.9749 20.5 10.5C19.8436 9.84362 21.9283 19.5 21 19.5ZM35 33.25C35 37.1175 28.735 40.25 21 40.25C13.265 40.25 7 37.1175 7 33.25C7 30.9925 9.135 28.98 12.4425 27.7025L13.5625 29.295C11.6725 30.0825 10.5 31.1675 10.5 32.375C10.5 34.79 15.2075 36.75 21 36.75C26.7925 36.75 31.5 34.79 31.5 32.375C31.5 31.1675 30.3275 30.0825 28.4375 29.295L29.5575 27.7025C32.865 28.98 35 30.9925 35 33.25Z" fill="#8BC34A"/>
<path d="M24.3333 17.1L25.3667 18.185C24.7267 19.368 23.1467 20.313 21.6667 20.544V14.3H23.6667V12.9H21.6667V12.074C22.44 11.78 23 11.01 23 10.1C23 8.945 22.1 8 21 8C19.9 8 19 8.945 19 10.1C19 11.01 19.56 11.78 20.3333 12.074V12.9H18.3333V14.3H20.3333V20.544C18.8533 20.313 17.2733 19.368 16.6333 18.185L17.6667 17.1L15 15V17.1C15 19.816 18.28 22 21 22C23.72 22 27 19.816 27 17.1V15L24.3333 17.1ZM21 9.4C21.3667 9.4 21.6667 9.715 21.6667 10.1C21.6667 10.485 21.3667 10.8 21 10.8C20.6333 10.8 20.3333 10.485 20.3333 10.1C20.3333 9.715 20.6333 9.4 21 9.4Z" fill="white"/>
</svg>
